# xmcd
#
# Track frame offsets:
#	150
#	17625
#	32043
#	44040
#	57014
#	83146
#	98005
#	129217
#	155765
#
# Disc length: 2387 seconds
#
# Revision: 20
# Processed by: cddbd v1.5.2PL0 Copyright (c) Steve Scherf et al.
# Submitted via: Jack! The Knife 20 Magnifico
#
DISCID=69095109
DTITLE=AC-DC - Dirty Deeds Done Dirt Cheap
DYEAR=1976
DGENRE=Hard Rock
TTITLE0=Dirty Deeds Done Dirt Cheap
TTITLE1=Love At First Feel
TTITLE2=Big Balls
TTITLE3=Rocker
TTITLE4=Problem Child
TTITLE5=There's Gonna Be Some Rockin'
TTITLE6=Ain't No Fun (Waiting Round To Be  A Millionaire)
TTITLE7=Ride On
TTITLE8=Squealer
EXTD=Harry Vanda and George Young
EXTT0=Young, Scott, Young
EXTT1=Young, Scott, Young
EXTT2=Young, Scott, Young
EXTT3=Young, Scott, Young
EXTT4=Young, Scott, Young
EXTT5=Young, Scott, Young
EXTT6=Young, Scott, Young
EXTT7=Young, Scott, Young
EXTT8=Young, Scott, Young
PLAYORDER=
